<svg xmlns="http://www.w3.org/2000/svg" viewBox="0 0 1600 900" role="img" aria-labelledby="title desc">
  <title id="title">Diagnostic medical equipment</title>
  <desc id="desc">A diagnostic kit with stethoscope, thermometer, pulse oximeter, and medicine containers.</desc>
  <defs>
    <linearGradient id="bg" x1="0" x2="1" y1="0" y2="1">
      <stop stop-color="#f7fafc"/>
      <stop offset=".55" stop-color="#d8e8f2"/>
      <stop offset="1" stop-color="#95b7c9"/>
    </linearGradient>
    <filter id="shadow" color-interpolation-filters="sRGB" x="-20%" y="-20%" width="140%" height="140%">
      <feDropShadow dx="0" dy="24" stdDeviation="24" flood-color="#1f3f4f" flood-opacity=".2"/>
    </filter>
  </defs>
  <rect width="1600" height="900" fill="url(#bg)"/>
  <rect x="150" y="610" width="1300" height="95" rx="48" fill="#ffffff" opacity=".7"/>
  <g filter="url(#shadow)">
    <rect x="255" y="245" width="480" height="380" rx="38" fill="#ffffff"/>
    <rect x="300" y="300" width="390" height="250" rx="28" fill="#edf7f8"/>
    <path d="M440 390 h110 v34 h-110 z" fill="#d84b4b"/>
    <path d="M478 352 h34 v110 h-34 z" fill="#d84b4b"/>
    <rect x="350" y="500" width="290" height="18" rx="9" fill="#83bfc1"/>
  </g>
  <g fill="none" stroke="#314d5a" stroke-linecap="round" stroke-width="22" filter="url(#shadow)">
    <path d="M850 305 C740 450 770 660 1005 665 C1180 668 1230 525 1160 430"/>
    <path d="M860 304 C900 360 965 360 1005 304"/>
    <circle cx="1162" cy="430" r="70" fill="#f8fbfb" stroke="#314d5a"/>
    <circle cx="1162" cy="430" r="28" fill="#d84b4b" stroke="none"/>
  </g>
  <g filter="url(#shadow)">
    <rect x="1030" y="250" width="170" height="88" rx="28" fill="#284a55"/>
    <rect x="1048" y="272" width="134" height="44" rx="16" fill="#88cfd0"/>
    <rect x="1280" y="325" width="75" height="275" rx="32" fill="#ffffff"/>
    <rect x="1297" y="385" width="41" height="135" rx="20" fill="#d84b4b"/>
    <rect x="1262" y="575" width="112" height="42" rx="21" fill="#34575c"/>
  </g>
</svg>
