<svg xmlns="http://www.w3.org/2000/svg" viewBox="0 0 1600 900" role="img" aria-labelledby="title desc">
  <title id="title">Emergency care supplies</title>
  <desc id="desc">First aid and emergency medical supplies arranged in a modern healthcare setting.</desc>
  <defs>
    <linearGradient id="bg" x1="0" x2="1" y1="0" y2="1">
      <stop stop-color="#fbf8f4"/>
      <stop offset=".54" stop-color="#f0ded1"/>
      <stop offset="1" stop-color="#d6b3a0"/>
    </linearGradient>
    <filter id="shadow" color-interpolation-filters="sRGB" x="-20%" y="-20%" width="140%" height="140%">
      <feDropShadow dx="0" dy="25" stdDeviation="26" flood-color="#4c3329" flood-opacity=".2"/>
    </filter>
  </defs>
  <rect width="1600" height="900" fill="url(#bg)"/>
  <path d="M0 700 C260 630 455 720 760 650 C1030 585 1260 610 1600 535 L1600 900 L0 900 Z" fill="#fff8f0"/>
  <g filter="url(#shadow)">
    <rect x="460" y="270" width="620" height="385" rx="42" fill="#ffffff"/>
    <rect x="560" y="210" width="420" height="135" rx="54" fill="none" stroke="#6c6f72" stroke-width="34"/>
    <rect x="687" y="406" width="170" height="48" rx="7" fill="#d84b4b"/>
    <rect x="748" y="345" width="48" height="170" rx="7" fill="#d84b4b"/>
    <rect x="520" y="555" width="500" height="50" rx="18" fill="#f0cdbd"/>
  </g>
  <g filter="url(#shadow)">
    <rect x="230" y="465" width="190" height="82" rx="34" fill="#e7f0f1"/>
    <rect x="270" y="428" width="112" height="62" rx="24" fill="#ffffff"/>
    <rect x="1180" y="370" width="92" height="250" rx="32" fill="#ffffff"/>
    <rect x="1201" y="430" width="50" height="120" rx="24" fill="#ef7063"/>
    <rect x="1290" y="430" width="120" height="190" rx="30" fill="#2f5960"/>
    <rect x="1312" y="462" width="76" height="82" rx="14" fill="#9bd1cf"/>
  </g>
</svg>
