<svg xmlns="http://www.w3.org/2000/svg" viewBox="0 0 1600 900" role="img" aria-labelledby="title desc">
  <title id="title">Clinical medical kits</title>
  <desc id="desc">Medical bags, diagnostic tools, bottles, gloves, and bandages arranged on a clean counter.</desc>
  <defs>
    <linearGradient id="bg" x1="0" x2="1" y1="0" y2="1">
      <stop stop-color="#f6fbfb"/>
      <stop offset=".52" stop-color="#dcefed"/>
      <stop offset="1" stop-color="#9fc6c9"/>
    </linearGradient>
    <linearGradient id="bag" x1="0" x2="1">
      <stop stop-color="#fdfefe"/>
      <stop offset="1" stop-color="#d6e6e7"/>
    </linearGradient>
    <filter id="shadow" color-interpolation-filters="sRGB" x="-20%" y="-20%" width="140%" height="140%">
      <feDropShadow dx="0" dy="24" stdDeviation="24" flood-color="#234448" flood-opacity=".2"/>
    </filter>
  </defs>
  <rect width="1600" height="900" fill="url(#bg)"/>
  <path d="M0 620 C270 560 390 720 620 650 C870 575 1080 520 1600 610 L1600 900 L0 900 Z" fill="#eef7f6"/>
  <circle cx="1320" cy="180" r="210" fill="#d84b4b" opacity=".12"/>
  <circle cx="1120" cy="230" r="90" fill="#2c9d9a" opacity=".14"/>
  <g filter="url(#shadow)">
    <rect x="890" y="300" width="430" height="330" rx="36" fill="url(#bag)"/>
    <rect x="980" y="245" width="250" height="100" rx="50" fill="none" stroke="#516f74" stroke-width="30"/>
    <rect x="1035" y="395" width="140" height="38" rx="6" fill="#d84b4b"/>
    <rect x="1086" y="344" width="38" height="140" rx="6" fill="#d84b4b"/>
    <rect x="928" y="512" width="354" height="52" rx="16" fill="#9ac8ca"/>
  </g>
  <g filter="url(#shadow)">
    <rect x="320" y="335" width="340" height="310" rx="34" fill="#ffffff"/>
    <rect x="365" y="280" width="250" height="105" rx="40" fill="none" stroke="#6f8587" stroke-width="28"/>
    <path d="M390 488 h200 v46 h-200 z" fill="#d84b4b"/>
    <path d="M467 410 h46 v200 h-46 z" fill="#d84b4b"/>
  </g>
  <g filter="url(#shadow)">
    <rect x="710" y="435" width="92" height="205" rx="28" fill="#f9fbfb"/>
    <rect x="728" y="385" width="56" height="72" rx="14" fill="#416d78"/>
    <rect x="722" y="512" width="68" height="48" rx="8" fill="#6fb6b6"/>
    <rect x="805" y="455" width="100" height="185" rx="26" fill="#eaf4f3"/>
    <rect x="830" y="405" width="50" height="72" rx="13" fill="#d84b4b"/>
    <rect x="822" y="528" width="66" height="52" rx="9" fill="#92c7c9"/>
  </g>
  <g fill="none" stroke="#34575c" stroke-linecap="round" stroke-width="18" filter="url(#shadow)">
    <path d="M565 665 C630 760 810 760 875 665"/>
    <circle cx="548" cy="640" r="28" fill="#34575c" stroke="none"/>
    <circle cx="895" cy="640" r="28" fill="#34575c" stroke="none"/>
  </g>
</svg>
